<svg xmlns="http://www.w3.org/2000/svg" viewBox="0 0 512 512"><title>Artboard 152</title><g id="Brandenburg_Gate" data-name="Brandenburg Gate"><path d="M490.66667,42.66667H21.33333V64s21.33334,0,21.33334,21.33333V192H469.33333V85.33333C469.33333,64,490.66667,64,490.66667,64Z" style="fill:#885400"/><path d="M405.33333,64V42.66667h-384V64s21.33334,0,21.33334,21.33333V192H384V85.33333C384,64,405.33333,64,405.33333,64Z" style="fill:#b37900"/><rect x="21.33333" y="42.66667" width="469.33333" height="21.33333" style="fill:#b37900"/><rect x="21.33333" y="42.66666" width="384" height="21.33333" style="fill:#d6a436"/><polygon points="426.667 106.667 426.667 85.333 384 85.333 384 64 128 64 128 85.333 85.333 85.333 85.333 106.667 42.667 106.667 42.667 128 85.333 128 426.667 128 469.333 128 469.333 106.667 426.667 106.667" style="fill:#cb8c01"/><rect x="170.66667" y="64" width="170.66667" height="64" style="fill:#b37900"/><path d="M362.66667,21.33333H149.33333V42.66667s21.33334,0,21.33334,21.33333v42.66667H341.33333V64c0-21.33333,21.33334-21.33333,21.33334-21.33333Z" style="fill:#e0bb69"/><rect x="21.33333" y="128" width="469.33333" height="64" style="fill:#b37900"/><polygon points="490.667 170.667 21.333 170.667 21.333 192 42.667 213.333 469.333 213.333 490.667 192 490.667 170.667" style="fill:#9e6611"/><rect x="42.66667" y="192" width="426.66667" height="85.33333" style="fill:#b37900"/><path d="M62.21875,234.66667h3.5625C69.33333,245.39583,78.52083,256,96,256s26.66667-10.60417,30.21875-21.33333h3.5625C133.33333,245.39583,142.52083,256,160,256s26.66667-10.60417,30.21875-21.33333h3.5625C197.33333,245.39583,206.52083,256,224,256s26.66667-10.60417,30.21875-21.33333h3.5625C261.33333,245.39583,270.52083,256,288,256s26.66667-10.60417,30.21875-21.33333h3.5625C325.33333,245.39583,334.52083,256,352,256s26.66667-10.60417,30.21875-21.33333h3.5625C389.33333,245.39583,398.52083,256,416,256s26.66667-10.60417,30.21875-21.33333h3.5625c2.73568,8.26172,8.91927,16.32552,19.55208,19.65494V213.33333l-42.40625.14584-.26041,10.39583c-.125,4.91667-2.07292,10.79167-10.66667,10.79167S405.45833,228.79167,405.33333,224V213.33333l-42.40625.14584-.26041,10.39583c-.125,4.91667-2.07292,10.79167-10.66667,10.79167S341.45833,228.79167,341.33333,224V213.33333l-42.40625.14584-.26041,10.39583c-.125,4.91667-2.07292,10.79167-10.66667,10.79167S277.45833,228.79167,277.33333,224V213.33333l-42.40625.14584-.26041,10.39583c-.125,4.91667-2.07292,10.79167-10.66667,10.79167S213.45833,228.79167,213.33333,224V213.33333l-42.40625.14584-.26041,10.39583c-.125,4.91667-2.07292,10.79167-10.66667,10.79167S149.45833,228.79167,149.33333,224V213.33333l-42.40625.14584-.26041,10.39583c-.125,4.91667-2.07292,10.79167-10.66667,10.79167S85.45833,228.79167,85.33333,224V213.33333l-42.40625.14584L42.66667,223.875v30.44661C53.29948,250.99219,59.48307,242.92839,62.21875,234.66667Z" style="fill:#9e6611"/><path d="M62.21875,213.33333h3.5625C69.33333,224.0625,78.52083,234.66667,96,234.66667s26.66667-10.60417,30.21875-21.33334h3.5625C133.33333,224.0625,142.52083,234.66667,160,234.66667s26.66667-10.60417,30.21875-21.33334h3.5625C197.33333,224.0625,206.52083,234.66667,224,234.66667s26.66667-10.60417,30.21875-21.33334h3.5625C261.33333,224.0625,270.52083,234.66667,288,234.66667s26.66667-10.60417,30.21875-21.33334h3.5625C325.33333,224.0625,334.52083,234.66667,352,234.66667s26.66667-10.60417,30.21875-21.33334h3.5625C389.33333,224.0625,398.52083,234.66667,416,234.66667s26.66667-10.60417,30.21875-21.33334h3.5625c2.73568,8.26172,8.91927,16.32552,19.55208,19.655V192l-42.40625.14583-.26041,10.39584c-.125,4.91666-2.07292,10.79166-10.66667,10.79166s-10.54167-5.875-10.66667-10.66666V192l-42.40625.14583-.26041,10.39584c-.125,4.91666-2.07292,10.79166-10.66667,10.79166s-10.54167-5.875-10.66667-10.66666V192l-42.40625.14583-.26041,10.39584c-.125,4.91666-2.07292,10.79166-10.66667,10.79166s-10.54167-5.875-10.66667-10.66666V192l-42.40625.14583-.26041,10.39584c-.125,4.91666-2.07292,10.79166-10.66667,10.79166s-10.54167-5.875-10.66667-10.66666V192l-42.40625.14583-.26041,10.39584c-.125,4.91666-2.07292,10.79166-10.66667,10.79166s-10.54167-5.875-10.66667-10.66666V192l-42.40625.14583-.26041,10.39584c-.125,4.91666-2.07292,10.79166-10.66667,10.79166s-10.54167-5.875-10.66667-10.66666V192l-42.40625.14583-.26041,10.39584v30.44661C53.29948,229.65885,59.48307,221.59505,62.21875,213.33333Z" style="fill:#cb8c01"/><rect x="21.33333" y="128" width="362.66667" height="42.66667" style="fill:#d6a436"/><rect x="42.66667" y="192" width="320" height="85.33333" style="fill:#cb8c01"/><path d="M62.21875,234.66667h3.5625C69.33333,245.39583,78.52083,256,96,256s26.66667-10.60417,30.21875-21.33333h3.5625C133.33333,245.39583,142.52083,256,160,256s26.66667-10.60417,30.21875-21.33333h3.5625C197.33333,245.39583,206.52083,256,224,256s26.66667-10.60417,30.21875-21.33333h3.5625C261.33333,245.39583,270.52083,256,288,256s26.66667-10.60417,30.21875-21.33333h3.5625C325.33333,245.39583,334.52083,256,352,256a35.058,35.058,0,0,0,10.66667-1.67839V223.875c-.125,4.91667-2.07292,10.79167-10.66667,10.79167S341.45833,228.79167,341.33333,224V213.33333l-42.40625.14584-.26041,10.39583c-.125,4.91667-2.07292,10.79167-10.66667,10.79167S277.45833,228.79167,277.33333,224V213.33333l-42.40625.14584-.26041,10.39583c-.125,4.91667-2.07292,10.79167-10.66667,10.79167S213.45833,228.79167,213.33333,224V213.33333l-42.40625.14584-.26041,10.39583c-.125,4.91667-2.07292,10.79167-10.66667,10.79167S149.45833,228.79167,149.33333,224V213.33333l-42.40625.14584-.26041,10.39583c-.125,4.91667-2.07292,10.79167-10.66667,10.79167S85.45833,228.79167,85.33333,224V213.33333l-42.40625.14584L42.66667,223.875v30.44661C53.29948,250.99219,59.48307,242.92839,62.21875,234.66667Z" style="fill:#b37900"/><path d="M62.21875,213.33333h3.5625C69.33333,224.0625,78.52083,234.66667,96,234.66667s26.66667-10.60417,30.21875-21.33334h3.5625C133.33333,224.0625,142.52083,234.66667,160,234.66667s26.66667-10.60417,30.21875-21.33334h3.5625C197.33333,224.0625,206.52083,234.66667,224,234.66667s26.66667-10.60417,30.21875-21.33334h3.5625C261.33333,224.0625,270.52083,234.66667,288,234.66667s26.66667-10.60417,30.21875-21.33334h3.5625C325.33333,224.0625,334.52083,234.66667,352,234.66667a35.058,35.058,0,0,0,10.66667-1.67839V202.54167c-.125,4.91666-2.07292,10.79166-10.66667,10.79166s-10.54167-5.875-10.66667-10.66666V192l-42.40625.14583-.26041,10.39584c-.125,4.91666-2.07292,10.79166-10.66667,10.79166s-10.54167-5.875-10.66667-10.66666V192l-42.40625.14583-.26041,10.39584c-.125,4.91666-2.07292,10.79166-10.66667,10.79166s-10.54167-5.875-10.66667-10.66666V192l-42.40625.14583-.26041,10.39584c-.125,4.91666-2.07292,10.79166-10.66667,10.79166s-10.54167-5.875-10.66667-10.66666V192l-42.40625.14583-.26041,10.39584c-.125,4.91666-2.07292,10.79166-10.66667,10.79166s-10.54167-5.875-10.66667-10.66666V192l-42.40625.14583-.26041,10.39584v30.44661C53.29948,229.65885,59.48307,221.59505,62.21875,213.33333Z" style="fill:#d6a436"/><rect x="42.66667" y="256" width="426.66667" height="42.66667" style="fill:#9e6611"/><rect x="320" y="256" width="149.33333" height="42.66667" style="fill:#885400"/><rect x="42.66667" y="277.33333" width="64" height="213.33333" style="fill:#9e6611"/><rect x="106.66667" y="277.33333" width="64" height="213.33333" style="fill:#9e6611"/><rect x="405.33333" y="277.33333" width="64" height="213.33333" style="fill:#885400"/><rect x="341.33333" y="277.33333" width="64" height="213.33333" style="fill:#885400"/><rect x="42.66667" y="277.33333" width="42.66667" height="213.33333" style="fill:#cb8c01"/><rect x="106.66667" y="277.33333" width="42.66667" height="213.33333" style="fill:#cb8c01"/><rect x="192" y="277.33333" width="42.66667" height="213.33333" style="fill:#cb8c01"/><rect x="362.66667" y="277.33333" width="42.66667" height="213.33333" style="fill:#b37900"/><rect x="277.33333" y="277.33333" width="42.66667" height="213.33333" style="fill:#cb8c01"/><rect x="426.66667" y="277.33333" width="42.66667" height="213.33333" style="fill:#b37900"/><rect x="42.66667" y="277.33333" width="42.66667" height="42.66667" style="fill:#b37900"/><rect x="106.66667" y="277.33333" width="42.66667" height="42.66667" style="fill:#b37900"/><rect x="192" y="277.33333" width="42.66667" height="42.66667" style="fill:#b37900"/><rect x="362.66667" y="277.33333" width="42.66667" height="42.66667" style="fill:#9e6611"/><rect x="277.33333" y="277.33333" width="42.66667" height="42.66667" style="fill:#b37900"/><rect x="426.66667" y="277.33333" width="42.66667" height="42.66667" style="fill:#9e6611"/><rect x="149.33333" y="21.33333" width="213.33333" height="21.33333" style="fill:#e9cf95"/></g></svg>